<?xml version="1.0" encoding="utf-8"?>
<!-- Generator: Adobe Illustrator 24.0.1, SVG Export Plug-In . SVG Version: 6.00 Build 0)  -->
<svg version="1.1" id="레이어_1" xmlns="http://www.w3.org/2000/svg" xmlns:xlink="http://www.w3.org/1999/xlink" x="0px"
	 y="0px" viewBox="0 0 311.5 311.7" style="enable-background:new 0 0 311.5 311.7;" xml:space="preserve">
<style type="text/css">
	.st0{fill:#541316;}
	.st1{opacity:0.4;fill:#FDA227;enable-background:new    ;}
	.st2{opacity:0.3;fill:#FDA227;enable-background:new    ;}
</style>
<g>
	<g>
		<path class="st0" d="M0,155.5C-0.6,70.2,70.3-0.1,155.9,0.1C239.7,0.2,311.7,67.6,311.5,156c-0.2,87.3-69.6,155.7-155.8,155.7
			C66.7,311.7-0.9,239.1,0,155.5z M11,155.6C10,235,74.7,300.9,155.3,300.9c81,0,145-63.7,145.4-144.6
			C301.1,75.2,235.2,11.5,156.1,11C77.1,10.5,9.8,76.5,11,155.6z"/>
		<circle class="st1" cx="155.8" cy="155.8" r="144.9"/>
		<circle class="st2" cx="156" cy="155.9" r="103.5"/>
		<path class="st0" d="M248.9,112.9c-12.8,0.1-25.6,0.2-38.4,0.2c-4.2,0-6.7-2.6-6.4-6c0.3-3.2,2.3-4.8,6.3-4.9c7.5-0.1,15,0,22.5,0
			c0.8,0,1.7-0.1,2.5-0.2c-0.4-0.9-0.6-1.8-1.2-2.6c-7.7-10.7-17.1-19.4-28.3-26.2c-17.9-10.8-37.4-15.5-58.1-13.7
			c-20.1,1.7-38.2,9.1-53.8,22.2c-16.6,13.9-27.3,31.4-32.2,52.4c-1.2,5.3-1.7,10.8-2.5,16.1c-0.1,7.1-1,14.2,1.7,21.1
			c0.1,8,2.9,15.3,6,22.4c14,31.5,38.3,50.9,72.1,57.2c27.3,5.1,52.7-1.3,75.1-18.2c13.1-9.9,23-22.4,29.8-37.4
			c1.6-3.6,3.8-5.8,8-4.8c4,4.4,3.9,4.6,1.4,10.1c-5.8,12.9-13.8,24.3-24.2,33.8c-15,13.8-32.4,22.8-52.4,26.9
			c-10.4,2.2-20.8,2.7-31.2,1.7c-19.8-1.9-38-8.9-54-20.9C71.3,227,58.1,207.2,51.7,183c-3.3-12.5-4.4-25.3-2.8-38.4
			c2-17.5,7.6-33.6,17.3-48.1c9.2-13.9,21.1-25.1,35.6-33.5c11.6-6.8,24.1-11.1,37.2-13.3c9.3-1.5,18.7-1.7,28.2-0.6
			c13.9,1.7,26.9,5.5,39.2,12c12.8,6.8,23.7,15.9,32.9,27c0.6,0.7,1.4,1.1,2.1,1.7c0.2-0.9,0.5-1.9,0.5-2.8c0-5.7,0-11.3,0-17
			c0.1-4.2,1.6-5.8,5.1-5.8s5,1.7,5,5.9c0.1,12.2-0.1,24.3,0.1,36.5C252.2,109.6,250.7,111.2,248.9,112.9z"/>
		<path class="st0" d="M145.1,109.5c-0.1-6.7,1.8-10.3,6.5-12.1c5.6-2.1,14,0.9,14.2,10.3c0.1,6.3-0.7,12.5-1.1,18.8
			c-0.1,2-0.6,3.9-0.7,5.9c-0.7,12.9-1.4,25.8-2.1,38.7c-0.3,5.5-0.6,10.9-0.9,16.3c-0.2,3.5-1.6,5.2-4.4,5.7
			c-3.6,0.7-6.3-1.6-6.6-5.5c-0.3-5.1-0.7-10.2-0.9-15.3c-0.4-7.9-0.6-15.9-1.1-23.8c-0.8-11.7-1.9-23.4-2.8-35
			C145.1,112.2,145.1,110.8,145.1,109.5z"/>
		<path class="st0" d="M155.7,204.2c6,0,11.2,5.1,11.2,10.9c0,5.1-6,10.9-11.1,10.8c-5.6-0.2-10.8-5.4-10.7-10.9
			C145.1,209.1,149.9,204.2,155.7,204.2z"/>
	</g>
</g>
</svg>
