<?xml version="1.0" encoding="utf-8"?>
<!-- Generator: Adobe Illustrator 24.0.1, SVG Export Plug-In . SVG Version: 6.00 Build 0)  -->
<svg version="1.1" id="레이어_1" xmlns="http://www.w3.org/2000/svg" xmlns:xlink="http://www.w3.org/1999/xlink" x="0px"
	 y="0px" viewBox="0 0 344 339.9" style="enable-background:new 0 0 344 339.9;" xml:space="preserve">
<style type="text/css">
	.st0{fill:#6A3340;}
	.st1{fill:#FBB64A;}
</style>
<g>
	<g>
		<path class="st0" d="M172.1,342.1c-4.5-2.6-9.3-4.2-12.4-7.3c-43.2-42.8-86.1-85.9-129.1-128.8C23.3,198.6,16,191.3,8.7,184
			c-7-7.1-7.1-17,0-24C59.1,109.6,109.5,59.2,159.9,8.8c7.2-7.2,17.1-7.2,24.4,0.2c50.3,50.3,100.6,100.6,150.9,150.8
			c7.1,7.1,7.1,17.4,0,24.4c-50.3,50.2-100.5,100.6-151,150.7C181.1,338,176.5,339.5,172.1,342.1z M172.2,330.1
			c2.2-1.7,4.1-2.9,5.7-4.5c49.2-49.2,98.5-98.4,147.7-147.6c5-5,5-7,0-11.9C276.4,116.8,227.2,67.6,178,18.4c-5-5-7-5-11.9-0.1
			C116.8,67.6,67.6,116.8,18.4,166c-5,5-5,7-0.1,11.9c18.9,19,37.9,37.9,56.9,56.9c30.4,30.4,60.8,60.8,91.2,91.1
			C167.9,327.4,169.9,328.5,172.2,330.1z"/>
		<path class="st1" d="M172.2,330.1c-2.3-1.6-4.3-2.7-5.9-4.2c-30.4-30.3-60.8-60.7-91.2-91.1c-19-18.9-37.9-37.9-56.9-56.9
			c-5-5-4.9-6.9,0.1-11.9C67.6,116.8,116.8,67.6,166,18.4c5-5,6.9-4.9,11.9,0.1c49.2,49.2,98.4,98.4,147.7,147.6c5,5,5,6.9,0,11.9
			c-49.2,49.2-98.4,98.4-147.7,147.6C176.4,327.2,174.5,328.4,172.2,330.1z M171.7,46.2c-3.4,2.3-6.8,3.9-9.4,6.5
			C125.8,89,89.5,125.4,53.1,161.8c-7.7,7.6-7.7,12.7-0.1,20.3c33.1,33.1,66.2,66.2,99.3,99.2c3.8,3.8,7.4,7.6,11.3,11.3
			c6.2,5.8,14.3,5,18.6-2.2c1-1.6,0.8-4.9-0.2-6.6c-1.5-2.4-4.7-2.9-6.9-0.6c-2.7,2.9-4.3,1.6-6.4-0.6
			c-35.9-35.9-71.8-71.8-107.8-107.6c-2.5-2.5-2.4-3.8,0-6.2c36-35.8,71.9-71.7,107.7-107.7c2.6-2.6,3.9-2.8,6.6-0.1
			c35.7,35.9,71.4,71.7,107.3,107.5c2.5,2.5,2.8,4,0.6,6.9c-1,1.3-0.6,5.2,0.7,6.4c1.2,1.2,4.8,1.4,6.5,0.4
			c7.2-4.2,8.3-12.7,2.4-18.6c-37.4-37.5-74.8-74.9-112.4-112.3C178.2,49.3,175.1,48.2,171.7,46.2z M139.9,201.3
			C140,201.3,139.7,201.3,139.9,201.3c0,6.2,0.1,12.3,0,18.5c-0.1,3.4,1.7,5.6,4.8,6c3.5,0.4,5.5-1.9,5.9-5.3c0.2-1.5,0.2-3,0.2-4.5
			c0-10-0.3-20,0-30c0.5-16.1,11.7-30.5,27.5-33.9c7.9-1.7,16.2-1,24.3-1.4c0.9,0,1.9,0.3,2.9,0.4c-0.5,0.9-0.9,2.1-1.6,2.8
			c-6.2,6.3-12.5,12.5-18.7,18.8c-2.4,2.5-3.6,5.4-0.9,8.4c2.8,3.1,5.8,2.1,8.3-0.3c10.4-10.3,20.8-20.7,31.1-31.1
			c2.6-2.6,3-5.5,0.2-8.4c-10.6-10.6-21.1-21.3-31.8-31.8c-2.9-2.8-7.6-1.9-8.4,1.8c-0.5,2.1,0.6,5.2,2.1,6.9
			c6.1,6.6,12.7,12.7,19.1,19.1c0.6,0.6,0.9,1.3,1.4,2c-0.9,0.2-1.7,0.6-2.6,0.7c-6,0.1-12,0.1-18,0.2
			c-21.3,0.4-40.8,16.5-44.6,37.4C139.7,185.2,140.4,193.4,139.9,201.3z M221.2,253.6c-0.4-1.2-0.5-2-0.9-2.4
			c-3.2-3.1-6.1-6.5-9.7-9c-1.2-0.8-4.9,0.1-5.8,1.4c-1,1.3-1,4.7,0,6.1c2,2.9,4.8,5.5,7.7,7.6c1.3,0.9,3.9,1,5.3,0.4
			C219.3,257,220.2,254.9,221.2,253.6z M272.2,201.8c4.4-0.2,6.8-4.9,4.4-8.1c-2.2-2.9-4.9-5.4-7.6-7.9c-2.3-2-5-2-7.1,0.3
			c-2.1,2.3-1.9,4.9,0.1,7.2c2.2,2.5,4.6,4.8,7.1,7C270,201.1,271.4,201.4,272.2,201.8z M258.8,215.3c-0.1-0.3-0.2-1.1-0.6-1.5
			c-3.2-3.3-6.2-6.9-9.8-9.7c-1-0.8-4.7,0-5.5,1.2c-1,1.5-1.2,4.8-0.2,6.2c2.1,3.1,5.1,5.8,8.1,8.1
			C253.9,222.1,258.6,219.5,258.8,215.3z M239.8,234.4c-0.1-0.3-0.1-1.1-0.5-1.5c-3.1-3.3-6.2-6.9-9.7-9.8c-1-0.8-4.3-0.3-5.2,0.8
			c-1.1,1.3-1.9,4.6-1.1,5.6c2.7,3.5,5.9,6.7,9.4,9.4C235.4,241,239.5,238.3,239.8,234.4z M201.8,272.6c0.1-3.1-9-12.2-12.1-12.2
			c-3.9,0-6.7,4.6-4.3,7.8c2.5,3.2,5.6,6.2,8.9,8.6C197.2,279,201.7,276.3,201.8,272.6z"/>
		<path class="st0" d="M171.7,46.2c3.4,2,6.5,3,8.6,5.2c37.5,37.4,75,74.8,112.4,112.3c5.9,5.9,4.8,14.4-2.4,18.6
			c-1.6,1-5.3,0.8-6.5-0.4c-1.2-1.2-1.7-5.1-0.7-6.4c2.2-2.9,1.9-4.4-0.6-6.9C246.7,132.8,210.9,97,175.3,61c-2.7-2.7-4-2.5-6.6,0.1
			C132.9,97.1,96.9,133,61,168.9c-2.4,2.4-2.6,3.7,0,6.2c36,35.8,71.9,71.7,107.8,107.6c2.2,2.2,3.7,3.4,6.4,0.6
			c2.2-2.4,5.4-1.9,6.9,0.6c1,1.6,1.2,5,0.2,6.6c-4.4,7.1-12.4,8-18.6,2.2c-3.9-3.6-7.6-7.5-11.3-11.3
			c-33.1-33.1-66.2-66.2-99.3-99.2c-7.6-7.6-7.6-12.6,0.1-20.3C89.5,125.4,125.8,89,162.3,52.7C164.9,50.2,168.4,48.5,171.7,46.2z"
			/>
		<path class="st0" d="M139.9,201.3c0.5-7.9-0.2-16.1,1.2-23.8c3.8-20.9,23.3-37,44.6-37.4c6-0.1,12-0.1,18-0.2
			c0.9,0,1.7-0.4,2.6-0.7c-0.5-0.7-0.9-1.4-1.4-2c-6.4-6.3-12.9-12.5-19.1-19.1c-1.5-1.6-2.6-4.8-2.1-6.9c0.8-3.7,5.5-4.6,8.4-1.8
			c10.7,10.5,21.2,21.1,31.8,31.8c2.8,2.8,2.4,5.8-0.2,8.4c-10.3,10.4-20.7,20.8-31.1,31.1c-2.5,2.5-5.5,3.4-8.3,0.3
			c-2.7-3-1.6-5.9,0.9-8.4c6.2-6.3,12.5-12.5,18.7-18.8c0.7-0.7,1.1-1.9,1.6-2.8c-1-0.1-1.9-0.4-2.9-0.4c-8.1,0.4-16.5-0.3-24.3,1.4
			c-15.8,3.4-27,17.8-27.5,33.9c-0.3,10,0,20,0,30c0,1.5,0,3-0.2,4.5c-0.5,3.4-2.4,5.8-5.9,5.3c-3.1-0.4-4.8-2.5-4.8-6
			C139.9,213.6,139.9,207.5,139.9,201.3C139.7,201.3,140,201.3,139.9,201.3z"/>
		<path class="st0" d="M221.2,253.6c-1,1.3-1.9,3.4-3.4,4.1c-1.5,0.7-4.1,0.6-5.3-0.4c-2.9-2.1-5.7-4.7-7.7-7.6
			c-1-1.5-1.1-4.8,0-6.1c1-1.3,4.7-2.2,5.8-1.4c3.6,2.5,6.6,5.9,9.7,9C220.7,251.6,220.8,252.4,221.2,253.6z"/>
		<path class="st0" d="M272.2,201.8c-0.8-0.4-2.2-0.7-3.1-1.5c-2.5-2.2-4.9-4.5-7.1-7c-2-2.2-2.3-4.9-0.1-7.2
			c2.1-2.3,4.8-2.3,7.1-0.3c2.7,2.4,5.4,5,7.6,7.9C279,196.9,276.6,201.5,272.2,201.8z"/>
		<path class="st0" d="M258.8,215.3c-0.1,4.2-4.9,6.8-8.1,4.3c-3-2.3-5.9-5-8.1-8.1c-1-1.4-0.8-4.7,0.2-6.2c0.8-1.2,4.5-2,5.5-1.2
			c3.6,2.8,6.6,6.4,9.8,9.7C258.6,214.2,258.7,215,258.8,215.3z"/>
		<path class="st0" d="M239.8,234.4c-0.2,3.9-4.4,6.6-7.2,4.6c-3.5-2.6-6.7-5.9-9.4-9.4c-0.8-1.1,0-4.3,1.1-5.6
			c1-1.1,4.2-1.6,5.2-0.8c3.5,2.9,6.6,6.4,9.7,9.8C239.6,233.3,239.7,234.1,239.8,234.4z"/>
		<path class="st0" d="M201.8,272.6c-0.1,3.7-4.6,6.4-7.5,4.2c-3.3-2.4-6.4-5.4-8.9-8.6c-2.5-3.2,0.3-7.9,4.3-7.8
			C192.8,260.4,201.9,269.5,201.8,272.6z"/>
	</g>
</g>
</svg>
