<?xml version="1.0" encoding="utf-8"?>
<!-- Generator: Adobe Illustrator 24.0.1, SVG Export Plug-In . SVG Version: 6.00 Build 0)  -->
<svg version="1.1" id="레이어_1" xmlns="http://www.w3.org/2000/svg" xmlns:xlink="http://www.w3.org/1999/xlink" x="0px"
	 y="0px" viewBox="0 0 340.1 340.2" style="enable-background:new 0 0 340.1 340.2;" xml:space="preserve">
<style type="text/css">
	.st0{opacity:0.2;fill:#FDA227;enable-background:new    ;}
	.st1{fill:#541316;}
	.st2{fill:#CCA0A6;}
	.st3{fill:#D1ECFE;}
	.st4{fill:#FDA227;}
	.st5{fill:none;}
</style>
<ellipse class="st0" cx="133.3" cy="138.2" rx="101.1" ry="98.3"/>
<g>
	<g>
		<path class="st1" d="M150,0.8c63.2,7.4,112.9,58.7,118.1,121.8c2.7,32.1-5.3,61.3-23.1,88c-0.8,1.2-0.4,4.1,0.6,5.5
			c1.9,2.7,4.3,5.2,7,7.1c3.8,2.6,8,4.6,12.1,6.8c3.9,2.2,8.5,3.6,11.6,6.6c19,18.5,37.6,37.3,56.2,56.1c7.9,8,10.1,17.8,6.1,28.1
			c-4.1,10.8-12.2,17.7-24.1,19.2c-7.7,1-14.8-0.9-20.3-6.4c-19.8-19.5-39.4-39.2-58.9-59.1c-2.4-2.5-4.6-6.2-4.9-9.6
			c-1.1-10.4-10.1-14.3-15.8-20.9c-0.4-0.5-3.2,0.3-4.5,1.1C156.7,282,82.9,274.7,37.9,227.8C17,205.9,4.4,180,1.1,149.8
			c-0.3-2.6-0.7-5.3-1-7.9c0-4.7,0-9.3,0-14c0.3-2.1,0.6-4.1,0.8-6.1c0-0.9,0-1.9,0-2.8C8.2,56.8,56.9,8,119,0.8c0.9,0,1.9,0,2.9,0
			c2-0.3,4.1-0.6,6.1-0.8c4.7,0,9.3,0,14,0c1.7,0.3,3.4,0.6,5.1,0.9C148.1,0.9,149,0.8,150,0.8z M321.9,324.9
			c9-6.5,10.2-17.3,2.4-25.1c-18-18.2-36.2-36.3-54.3-54.3c-7.9-7.8-17.9-7.2-25.1,1.4c-6.3,6.9-6.8,15.4-0.4,21.9
			c18.7,19,37.6,37.8,56.5,56.5C306.2,330.5,316.3,331.4,321.9,324.9z M227,52.9c-0.5-0.7-0.9-1.4-1.5-2
			c-30-31.6-66.8-44.6-109.8-38.7C88.2,16,64.4,28.5,45.3,48.8C18.1,77.6,6.9,112.1,12.2,151.4c4,30.2,17.8,55.4,40.8,75.5
			c0.4,0.5,0.8,1.1,1.3,1.5c30.6,24.9,65.4,34.7,104.1,27c66.9-13.4,109.5-76.6,97.5-143.7C251.8,89.5,242.3,69.7,227,52.9z
			 M245.3,231.3c-2.9-2.8-5.5-5.6-8.5-7.8c-0.6-0.4-3.2,1.9-4.8,3.1c-1,0.8-1.9,1.9-2.8,2.8c-7.5,7.4-7.5,7.5,0.9,14.1
			c0.7,0.6,2.6,0.9,3.1,0.4c3.7-3.5,7.3-7.1,10.9-10.8C244.4,232.6,244.7,232.1,245.3,231.3z"/>
		<path class="st2" d="M0.1,141.9c0.3,2.6,0.7,5.3,1,7.9c-0.3,0-0.7,0.1-1,0.1C0.1,147.2,0.1,144.6,0.1,141.9z"/>
		<path class="st2" d="M128,0c-2,0.3-4.1,0.6-6.1,0.8c0.1-0.3,0.1-0.6,0.1-0.8C124,0,126,0,128,0z"/>
		<path class="st2" d="M0.9,121.8c-0.3,2.1-0.6,4.1-0.8,6.1c0-2,0-4,0-6C0.3,121.8,0.6,121.8,0.9,121.8z"/>
		<path class="st2" d="M147.1,0.9c-1.7-0.3-3.4-0.6-5.1-0.9c1.7,0,3.3,0,5,0C147,0.3,147.1,0.6,147.1,0.9z"/>
		<path class="st3" d="M122,0c0,0.3-0.1,0.6-0.1,0.8c-1,0-1.9,0-2.9,0c0-0.3,0-0.5,0-0.8C120,0,121,0,122,0z"/>
		<path class="st3" d="M147.1,0.9C147.1,0.6,147,0.3,147,0c1,0,2,0,3,0c0,0.3,0,0.6,0,0.8C149,0.8,148.1,0.9,147.1,0.9z"/>
		<path class="st3" d="M0.9,121.8c-0.3,0-0.6,0-0.8,0.1c0-1,0-2,0-3c0.3,0,0.5,0,0.8,0C0.9,119.9,0.9,120.8,0.9,121.8z"/>
		<path class="st4" d="M53,226.9c-23.1-20-36.8-45.3-40.8-75.5c-5.2-39.3,6-73.8,33.2-102.7C64.4,28.5,88.2,16,115.8,12.2
			c43-5.9,79.8,7.1,109.8,38.7c0.6,0.6,1,1.3,1.5,2c-1.5,0.3-3.1,1-4.6,1c-6.5,0.2-11.6,2.9-15.5,8.2c-26-24.1-56.3-34.2-91.6-28.1
			c-46,8-82.2,50.3-83.2,97.1c-0.1,4.5,0.7,8,5.8,8.9c0.5,4.6,0.9,9.3,1.4,13.9c-1.1,2.3-3.5,5.1-2.9,6.9c0.6,1.8,4.1,2.7,6.3,4
			c1.8,4.2,3.6,8.4,5.4,12.6c-0.7,2.6-2.7,5.8-1.7,7.5c0.9,1.7,4.7,1.7,7.3,2.5c2.8,3.6,5.7,7.2,8.5,10.9c0,2.9,0,5.8,0,8.6
			c-1.4,1.4-3.4,2.5-4.1,4.1C56.2,216.2,54.7,221.6,53,226.9z"/>
		<path class="st4" d="M206.9,62.1c3.8-5.2,8.9-8,15.5-8.2c1.6,0,3.1-0.7,4.6-1c15.3,16.8,24.8,36.6,28.8,58.8
			c12.1,67.1-30.5,130.3-97.5,143.7c-38.7,7.7-73.5-2.1-104.1-27c-0.5-0.4-0.9-1-1.3-1.5c1.7-5.3,3.2-10.8,5.2-16
			c0.6-1.6,2.7-2.8,4.1-4.1c2.6-0.1,5.2-0.1,7.8-0.2c3.7,2.8,7.4,5.5,11.2,8.3c0.7,2.5,0.8,6.2,2.4,7.1c1.7,1,4.9-0.8,7.4-1.3
			c4.3,1.7,8.6,3.4,13,5.1c1.2,2.3,2.3,4.6,3.4,6.9c2.5-1.3,5-2.6,7.5-3.9c4.7,0.6,9.3,1.3,14,2c0.7,4.2,3.5,5.8,7.5,5.6
			c30.7-1.3,56.4-13.1,76.2-36.7c19.5-23.3,26.8-50.4,22.7-80.5C232.2,97.1,222,78.4,206.9,62.1z"/>
		<path class="st5" d="M128.9,230.9c-4.7-0.6-9.3-1.3-13.9-2c0.7-3.2,2.1-6.5,2-9.6c-0.1-2.4-2.2-4.7-3.4-7.1
			c-2.2,1.4-5.2,2.4-6.5,4.4c-1.7,2.7-2.1,6.2-3,9.3c-4.3-1.7-8.6-3.4-13-5.1c1.6-2.9,3.8-5.6,4.6-8.7c0.6-2.4-0.7-5.2-1.2-7.8
			c-2.7,0.8-6,0.8-7.9,2.5c-2.4,2.1-3.6,5.4-5.3,8.2c-3.7-2.8-7.4-5.5-11.2-8.3c2.3-2.4,5.1-4.5,6.6-7.4c1-2,0.8-5.5-0.4-7.3
			c-0.8-1.1-4.8-0.9-6.8,0.1c-2.7,1.4-4.8,4-7.2,6.1c-2.8-3.6-5.7-7.2-8.5-10.9c2.9-1.8,6.4-3.2,8.6-5.6c1.5-1.6,2.5-5.5,1.6-7
			c-0.9-1.5-4.8-2.2-7-1.7c-3.1,0.7-5.9,2.9-8.8,4.4c-1.8-4.2-3.6-8.4-5.4-12.6c3-0.9,6.3-1.2,8.8-2.9c2.2-1.4,3.3-4.4,4.9-6.7
			c-2.5-1.2-5-3.3-7.5-3.4c-3.2-0.1-6.4,1.3-9.6,2.1c-0.5-4.6-0.9-9.3-1.4-13.9c3.9-1.2,5.2-3.9,5.2-8c0-4.5,0.4-9,1.2-13.4
			C54.6,66.8,101.1,35.3,152.8,45c47.2,8.8,80.7,57.8,71.5,104.6c-8.9,44.9-42.5,73.7-88.6,76.4
			C133.3,226.1,131.1,229.1,128.9,230.9z"/>
		<path class="st1" d="M128.9,230.9c2.3-1.7,4.5-4.8,6.8-4.9c46.1-2.7,79.8-31.5,88.6-76.4c9.2-46.8-24.2-95.8-71.5-104.6
			C101,35.3,54.6,66.8,44.4,118.6c-0.9,4.4-1.3,8.9-1.2,13.4c0,4.1-1.3,6.8-5.2,8c-5.1-0.9-5.9-4.4-5.8-8.9
			c1-46.8,37.2-89.1,83.2-97.1c35.3-6.1,65.6,4,91.6,28.1c15.1,16.2,25.3,34.9,28.3,57.2c4.1,30.1-3.1,57.2-22.7,80.5
			c-19.8,23.6-45.6,35.4-76.2,36.7C132.3,236.6,129.6,235.1,128.9,230.9z"/>
		<path class="st1" d="M48.2,177.4c2.9-1.6,5.7-3.7,8.8-4.4c2.2-0.5,6.1,0.2,7,1.7c0.9,1.6-0.1,5.4-1.6,7c-2.3,2.4-5.7,3.8-8.6,5.6
			c-2.5-0.8-6.3-0.8-7.3-2.5C45.6,183.2,47.5,179.9,48.2,177.4z"/>
		<path class="st1" d="M39.4,153.9c3.2-0.8,6.4-2.3,9.6-2.1c2.6,0.1,5,2.2,7.5,3.4c-1.6,2.3-2.7,5.2-4.9,6.7c-2.5,1.7-5.8,2-8.8,2.9
			c-2.2-1.3-5.7-2.2-6.3-4C35.9,159,38.3,156.2,39.4,153.9z"/>
		<path class="st1" d="M62.2,198.2c2.4-2.1,4.5-4.7,7.2-6.1c1.9-1,6-1.2,6.8-0.1c1.2,1.8,1.4,5.3,0.4,7.3c-1.4,2.8-4.3,4.9-6.6,7.4
			c-2.6,0.1-5.2,0.1-7.8,0.2C62.2,204,62.2,201.1,62.2,198.2z"/>
		<path class="st1" d="M104,225.9c0.9-3.1,1.3-6.7,3-9.3c1.3-2,4.3-3,6.5-4.4c1.2,2.4,3.3,4.7,3.4,7.1c0.1,3.2-1.2,6.4-2,9.6
			c-2.5,1.3-5,2.6-7.5,3.9C106.3,230.5,105.1,228.2,104,225.9z"/>
		<path class="st1" d="M81.2,215c1.7-2.8,2.9-6.2,5.3-8.2c1.9-1.6,5.2-1.7,7.9-2.5c0.5,2.6,1.8,5.4,1.2,7.8c-0.7,3.1-3,5.8-4.6,8.7
			c-2.5,0.6-5.8,2.3-7.4,1.3C82,221.1,81.9,217.5,81.2,215z"/>
	</g>
</g>
<path class="st4" d="M321.9,324.9c9-6.5,10.2-17.3,2.4-25.1c-18-18.2-36.2-36.3-54.3-54.3c-7.9-7.8-17.9-7.2-25.1,1.4
	c-6.3,6.9-6.8,15.4-0.4,21.9c18.7,19,37.6,37.8,56.5,56.5C306.2,330.5,316.3,331.4,321.9,324.9z"/>
</svg>
